<svg id="Layer_1" data-name="Layer 1" xmlns="http://www.w3.org/2000/svg" viewBox="0 0 50.54 73.92"><defs><style>.cls-1{fill:#fff;}</style></defs><title>Untitled-1</title><path class="cls-1" d="M6.12,14.53H14v4.14H.37V14.74L8.1,4.14H.42V0H14V3.93Z"/><path class="cls-1" d="M21.72,0V10.65a3.79,3.79,0,0,0,.7,2.44,2.6,2.6,0,0,0,2.13.86,2.65,2.65,0,0,0,2.15-.87,3.71,3.71,0,0,0,.72-2.43V0h5.17V10.65a8.82,8.82,0,0,1-1.07,4.48,6.92,6.92,0,0,1-2.91,2.79,9.14,9.14,0,0,1-4.17.93,8.72,8.72,0,0,1-4.1-.92,6.63,6.63,0,0,1-2.78-2.77,9.31,9.31,0,0,1-1-4.51V0Z"/><path class="cls-1" d="M44.82,18.67l-3.77-6.88h-.52v6.88h-5.2V0h8.2a8.48,8.48,0,0,1,3.81.78A5.38,5.38,0,0,1,49.7,2.93,6,6,0,0,1,50.49,6,5.49,5.49,0,0,1,49.41,9.4a5.73,5.73,0,0,1-3.11,2l4.24,7.25ZM40.53,8.31h2.55q2.16,0,2.16-1.95a1.92,1.92,0,0,0-.54-1.45,2.2,2.2,0,0,0-1.62-.53H40.53Z"/><path class="cls-1" d="M17.77,46.23H12.58L5.72,35.81V46.23H.53V27.59H5.72l6.86,10.54V27.59h5.19Z"/><path class="cls-1" d="M25.84,31.7v3.08h6v3.93h-6v3.38h6.83v4.14h-12V27.56h12V31.7Z"/><path class="cls-1" d="M44.53,46.23l-3.77-6.88h-.53v6.88H35V27.56h8.2a8.51,8.51,0,0,1,3.81.78,5.38,5.38,0,0,1,2.36,2.15,6,6,0,0,1,.79,3.08A5.49,5.49,0,0,1,49.12,37,5.73,5.73,0,0,1,46,39l4.24,7.25Zm-4.3-10.36h2.56q2.16,0,2.16-1.95a2,2,0,0,0-.54-1.46,2.24,2.24,0,0,0-1.62-.52H40.23Z"/><path class="cls-1" d="M15.24,56.7A7.1,7.1,0,0,1,18,61.4H12.55a3,3,0,0,0-1.24-1.22,4,4,0,0,0-1.92-.44,3.8,3.8,0,0,0-3,1.27,5,5,0,0,0-1.12,3.42,5.13,5.13,0,0,0,1.2,3.68A4.66,4.66,0,0,0,10,69.36a4.27,4.27,0,0,0,2.32-.63,4.34,4.34,0,0,0,1.58-1.88H8.7V63.16h9.47V68.3a9.77,9.77,0,0,1-3.21,4,9,9,0,0,1-5.55,1.65,10,10,0,0,1-5-1.2,8.17,8.17,0,0,1-3.28-3.36,11.12,11.12,0,0,1,0-9.85A8.25,8.25,0,0,1,4.4,56.16a9.87,9.87,0,0,1,5-1.2A9.46,9.46,0,0,1,15.24,56.7Z"/><path class="cls-1" d="M37.52,55.12,30.93,67.86v5.93H25.76V67.86L19.17,55.12H25.1l3.3,7.12,3.27-7.12Z"/><circle class="cls-1" cx="44.32" cy="67.7" r="6.22"/></svg>