<svg id="Layer_1" data-name="Layer 1" xmlns="http://www.w3.org/2000/svg" viewBox="0 0 167.43 167.43"><title>Zurnergy Media</title><path d="M139.52,0H27.9A28,28,0,0,0,0,27.9V139.52a28,28,0,0,0,27.9,27.91H139.52a28,28,0,0,0,27.91-27.91V27.9A28,28,0,0,0,139.52,0ZM80.22,85.2C74.41,91,65.27,93.74,55,93.74a40.69,40.69,0,0,1-7.12-.48v30.13H33.37V44.52a126.17,126.17,0,0,1,22.3-1.67c10.67,0,18.5,2.26,23.6,6.53A22.59,22.59,0,0,1,87.1,67.05C87.1,74.64,84.73,80.93,80.22,85.2Zm30.36,39.37a37.31,37.31,0,0,1-17.56-4L95.87,110a32.5,32.5,0,0,0,14.82,4.16c6.41,0,9.26-2.61,9.26-6.41s-2.38-5.93-9.49-8.42c-11.27-3.91-16-10.08-15.9-16.84,0-10.2,8.42-18.15,21.83-18.15a33.92,33.92,0,0,1,15.3,3.44l-2.85,10.32a26,26,0,0,0-12.22-3.32c-5.22,0-8.06,2.49-8.06,6s2.73,5.45,10.08,8.06c10.44,3.8,15.3,9.14,15.42,17.68C134.06,117,125.88,124.57,110.58,124.57ZM72.51,67.64C72.51,77,65.87,82.35,55,82.35a29.7,29.7,0,0,1-7.12-.59v-27A39.85,39.85,0,0,1,56.26,54C66.34,54,72.51,58.75,72.51,67.64Z"/></svg>