<svg id="Layer_1" data-name="Layer 1" xmlns="http://www.w3.org/2000/svg" viewBox="0 0 167.43 167.43"><title>Zurnergy Media</title><path d="M57.92,69.72l6.29,19.69H43.69l6.17-19.69c1.42-4.75,2.6-10.32,3.79-14.95h.24C55.07,59.4,56.38,64.86,57.92,69.72ZM122.32,74c-9,0-12.81,8.18-13.41,14.11H134.3C134.42,82.77,132,74,122.32,74ZM167.43,27.9V139.52a28,28,0,0,1-27.91,27.91H27.9A28,28,0,0,1,0,139.52V27.9A28,28,0,0,1,27.9,0H139.52A28,28,0,0,1,167.43,27.9ZM89.59,123.09l-26-79.94H45L19.37,123.09H34.44l6.88-22.65H66.7l7.23,22.65Zm58.46-31c0-12.69-6.16-28.1-24.9-28.1-18.5,0-28.23,15.06-28.23,31.07,0,17.67,11,29.18,29.77,29.18a54.51,54.51,0,0,0,20.16-3.56l-2.13-10.08a43.43,43.43,0,0,1-16,2.61c-9.25,0-17.43-4.51-17.79-15h38.67A35.69,35.69,0,0,0,148.05,92.13Z"/></svg>