<svg id="Layer_1" data-name="Layer 1" xmlns="http://www.w3.org/2000/svg" viewBox="0 0 167.43 167.43"><title>Zurnergy Media</title><g id="_2069a460dcf28295e231f3111e03585e" data-name="2069a460dcf28295e231f3111e03585e"><path d="M74.41,71.26,80.69,91H60.17l6.17-19.69c1.43-4.74,2.61-10.32,3.8-14.94h.23C71.56,60.94,72.86,66.4,74.41,71.26Zm93-43.36V139.52a28,28,0,0,1-27.91,27.91H27.9A28,28,0,0,1,0,139.52V27.9A28,28,0,0,1,27.9,0H139.52A28,28,0,0,1,167.43,27.9Zm-61.36,96.73-26-79.94H61.48L35.86,124.63H50.92L57.8,102H83.18l7.24,22.65Zm24.67-57.76H116v57.76h14.71Zm.83-16.13a8.19,8.19,0,0,0-16.37,0,7.66,7.66,0,0,0,8.06,7.83C128.36,58.57,131.57,55.13,131.57,50.74Z"/></g></svg>