<svg id="Layer_1" data-name="Layer 1" xmlns="http://www.w3.org/2000/svg" viewBox="0 0 167.43 167.43"><title>Zurnergy Media</title><path d="M139.52,0H27.9A28,28,0,0,0,0,27.9V139.52a28,28,0,0,0,27.9,27.91H139.52a28,28,0,0,0,27.91-27.91V27.9A28,28,0,0,0,139.52,0ZM98.25,21.18c13.29,5.28,23.94,16.18,23.84,35-.1,20.36-17.39,52.1-33.36,74H87.15c12.15-22.16,22.52-49.49,22.61-71,.08-19.54-7.9-31.94-18.67-39C93.48,20.39,95.88,20.72,98.25,21.18ZM86.92,19.89c6.23,8.38,11,20.26,11,37.49-.06,22.5-5.32,49.25-12.11,72.84H81.63c-6.79-23.59-12-50.34-12.11-72.84,0-17.23,4.76-29.11,11-37.49C82.64,19.8,84.79,19.8,86.92,19.89Zm-10.58.28c-10.77,7.08-18.76,19.48-18.67,39,.09,21.54,10.45,48.87,22.6,71H78.7c-16-21.91-33.26-53.65-33.36-74-.1-18.85,10.55-29.75,23.84-35C71.55,20.72,74,20.39,76.34,20.17ZM34.82,56.1c-.09-16,9.36-25.82,21.77-31.15C46.46,31,39.23,40.83,39.31,55.7c.13,24.24,20.42,55.7,38.31,74.52h-.31C58.57,113.25,35,80.72,34.82,56.1Zm55.72,88.79a2.72,2.72,0,0,1-2.71,2.71H79.6a2.72,2.72,0,0,1-2.71-2.71V138.3a2.71,2.71,0,0,1,2.71-2.71h8.23a2.71,2.71,0,0,1,2.71,2.71Zm-.42-14.67h-.31C107.7,111.4,128,79.94,128.12,55.7,128.2,40.83,121,31,110.83,25c12.42,5.33,21.87,15.16,21.78,31.15C132.46,80.72,108.86,113.25,90.12,130.22Z"/></svg>